<svg xmlns="http://www.w3.org/2000/svg" xmlns:xlink="http://www.w3.org/1999/xlink" width="240" zoomAndPan="magnify" viewBox="0 0 180 67.499998" height="90" preserveAspectRatio="xMidYMid meet" version="1.0"><defs><clipPath id="7562c1995c"><path d="M 52.292969 0 L 127.484375 0 L 127.484375 67.003906 L 52.292969 67.003906 Z M 52.292969 0 " clip-rule="nonzero"/></clipPath></defs><g clip-path="url(#7562c1995c)"><path fill="#ffffff" d="M 52.292969 -4.21875 L 127.484375 -4.21875 L 127.484375 70.976562 L 52.292969 70.976562 Z M 52.292969 -4.21875 " fill-opacity="1" fill-rule="evenodd"/></g><path fill="#000000" d="M 85.03125 5.785156 C 83.214844 6.15625 81.28125 6.96875 81.28125 6.96875 C 82.238281 5.667969 84.179688 4.070312 84.179688 4.070312 C 83.644531 3.066406 83.171875 1.578125 83.171875 1.578125 C 83.171875 1.578125 85.417969 1.703125 87.175781 2.273438 C 87.175781 2.273438 90.164062 0.636719 93.257812 0.585938 C 93.257812 0.585938 91.003906 1.886719 90.042969 3.101562 C 90.296875 3.234375 92.101562 3.773438 93.507812 4.601562 C 93.507812 4.601562 90.96875 4.675781 88.636719 4.992188 C 88.636719 4.992188 87.816406 6.152344 87.121094 8.785156 C 87.121094 8.785156 85.925781 7.46875 85.03125 5.785156 Z M 85.03125 5.785156 " fill-opacity="1" fill-rule="evenodd"/><path fill="#000000" d="M 97.097656 7.96875 C 95.558594 6.257812 93.507812 4.601562 93.507812 4.601562 C 95.394531 4.628906 98.199219 5.746094 98.199219 5.746094 C 98.746094 4.707031 99.128906 3.285156 99.128906 3.285156 C 99.128906 3.285156 100.199219 5.097656 100.6875 7.105469 C 100.6875 7.105469 102.914062 8.4375 104.59375 10.667969 C 104.59375 10.667969 102.839844 10.300781 101.550781 10.308594 C 101.546875 10.597656 102.023438 12.964844 101.917969 14.589844 C 101.917969 14.589844 100.492188 12.269531 99.152344 10.335938 C 99.152344 10.335938 96.996094 10.375 94.734375 10.992188 C 94.734375 10.992188 96 9.527344 97.097656 7.96875 Z M 99.5625 19.121094 C 100.699219 17.207031 101.921875 14.589844 101.921875 14.589844 C 102.292969 16.339844 102.328125 18.574219 102.328125 18.574219 C 103.453125 18.335938 105.445312 17.378906 105.445312 17.378906 C 105.445312 17.378906 104.558594 19.742188 102.570312 21.554688 C 102.570312 21.554688 102.769531 22.972656 102.792969 24.84375 C 102.792969 24.84375 101.386719 24.214844 100.21875 23.515625 C 99.972656 23.660156 98.5625 24.617188 96.179688 25.109375 C 96.179688 25.109375 97.1875 23.535156 98.023438 21.996094 C 98.023438 21.996094 96.359375 20.902344 95.046875 19.109375 C 95.046875 19.109375 97.605469 19.429688 99.5625 19.121094 Z M 99.5625 19.121094 " fill-opacity="1" fill-rule="evenodd"/><path fill="#000000" d="M 91.539062 15.21875 C 93.277344 17.371094 95.046875 19.109375 95.046875 19.109375 C 92.160156 18.679688 89.816406 17.871094 89.816406 17.871094 C 88.644531 19.75 87.367188 21.933594 87.367188 21.933594 C 87.367188 21.933594 86.652344 19.5625 86.53125 16.875 C 86.53125 16.875 85.082031 16.367188 82.410156 15.316406 C 82.410156 15.316406 84.253906 14.171875 86.484375 13.546875 C 86.351562 13.292969 86.695312 10.09375 87.121094 8.789062 C 87.121094 8.789062 88.421875 10.894531 89.480469 12.445312 C 89.480469 12.445312 91.554688 11.742188 94.734375 10.992188 C 94.734375 10.992188 92.992188 13.203125 91.539062 15.21875 Z M 75.699219 23.371094 C 75.523438 23.039062 75.359375 22.707031 75.207031 22.363281 C 75.238281 21.21875 75.339844 19.746094 75.632812 18.605469 C 75.632812 18.605469 74.792969 18.023438 73.929688 17.269531 C 73.917969 17.136719 73.90625 17.003906 73.898438 16.871094 C 74.398438 16.683594 75.453125 16.3125 76.378906 16.097656 C 76.484375 15.828125 77.058594 13.976562 78.167969 12.699219 C 78.167969 12.699219 78.242188 13.957031 78.542969 15.632812 C 78.542969 15.632812 80.296875 15.238281 82.410156 15.316406 C 82.410156 15.316406 80.453125 16.855469 79.21875 18.421875 C 79.667969 20.230469 80.566406 21.960938 80.566406 21.960938 C 79.222656 21.203125 77.800781 20.195312 77.800781 20.195312 C 77.300781 20.789062 76.296875 22.390625 75.699219 23.371094 Z M 86.878906 31.570312 C 86.664062 31.53125 86.445312 31.484375 86.230469 31.4375 C 85.496094 30.648438 84.378906 29.363281 83.523438 28.015625 C 83.523438 28.015625 80.371094 27.761719 78.148438 26.789062 C 78.148438 26.789062 79.984375 26.441406 82.003906 25.402344 C 81.875 25.144531 81.105469 23.726562 80.566406 21.960938 C 80.566406 21.960938 82.492188 23.519531 83.921875 24.429688 C 83.921875 24.429688 85.734375 23.386719 87.367188 21.933594 C 87.367188 21.933594 86.953125 23.941406 86.722656 26.238281 C 87.777344 26.839844 88.839844 27.425781 89.910156 27.996094 C 88.265625 28.234375 86.648438 28.183594 86.648438 28.183594 C 86.582031 29.460938 86.753906 30.796875 86.878906 31.570312 Z M 100.597656 27.472656 C 100.597656 27.472656 98.421875 28.046875 96.300781 28.128906 C 96.300781 28.128906 96.285156 26.679688 96.179688 25.109375 C 96.179688 25.109375 95.050781 26.710938 93.582031 28.25 C 91.84375 28.222656 89.910156 27.996094 89.910156 27.996094 C 90.574219 28.671875 91.253906 29.324219 91.957031 29.960938 C 90.648438 31.074219 89.4375 31.816406 89.4375 31.816406 C 89.609375 31.820312 89.785156 31.820312 89.957031 31.820312 C 94.085938 31.75 97.820312 30.105469 100.597656 27.472656 Z M 100.597656 27.472656 " fill-opacity="1" fill-rule="evenodd"/><path fill="#000000" d="M 74.089844 13.375 C 74.089844 13.375 75.253906 11.925781 76.609375 10.746094 C 76.609375 10.746094 77.0625 11.585938 78.167969 12.699219 C 78.167969 12.699219 78.175781 11.335938 78.335938 9.199219 C 79.574219 8.101562 81.28125 6.96875 81.28125 6.96875 C 79.863281 6.878906 78.808594 6.949219 78.808594 6.949219 C 79.136719 5.328125 79.878906 3.585938 79.878906 3.585938 C 76.867188 5.972656 74.75 9.433594 74.089844 13.375 Z M 104.496094 55.332031 C 102.46875 55.332031 101.234375 53.632812 101.234375 51.765625 C 101.234375 49.828125 102.671875 48.425781 104.546875 48.425781 C 106.625 48.425781 107.878906 50.074219 107.878906 51.890625 C 107.878906 54.039062 106.320312 55.332031 104.496094 55.332031 Z M 104.382812 49.402344 C 103.121094 49.402344 102.742188 50.605469 102.742188 51.417969 C 102.742188 52.609375 103.273438 54.351562 104.730469 54.351562 C 105.769531 54.351562 106.371094 53.425781 106.371094 52.316406 C 106.371094 51.136719 105.914062 49.402344 104.382812 49.402344 Z M 92.078125 54.363281 C 92.078125 54.730469 92.148438 54.863281 92.738281 54.976562 L 92.738281 55.230469 C 92.097656 55.199219 91.699219 55.167969 91.324219 55.167969 C 90.945312 55.167969 90.546875 55.199219 90.097656 55.230469 L 90.097656 54.976562 C 90.496094 54.90625 90.566406 54.730469 90.566406 54.25 L 90.566406 49.269531 C 90.566406 48.984375 90.445312 48.851562 90.097656 48.839844 L 90.097656 48.554688 L 93.113281 48.554688 C 95 48.554688 95.683594 49.453125 95.683594 50.636719 C 95.683594 51.902344 94.726562 52.675781 93.410156 52.675781 C 92.910156 52.675781 92.179688 52.417969 92.179688 52.207031 C 92.179688 52.113281 92.238281 52.113281 92.332031 52.113281 C 92.421875 52.113281 92.554688 52.144531 92.6875 52.144531 C 93.757812 52.144531 94.175781 51.542969 94.175781 50.699219 C 94.175781 49.78125 93.605469 49.453125 92.707031 49.453125 L 92.078125 49.523438 Z M 97.652344 49.207031 C 97.652344 48.921875 97.53125 48.789062 97.183594 48.78125 L 97.183594 48.515625 C 97.632812 48.546875 98.027344 48.574219 98.40625 48.574219 C 98.785156 48.574219 99.179688 48.546875 99.628906 48.515625 L 99.628906 48.78125 C 99.285156 48.789062 99.160156 48.921875 99.160156 49.207031 L 99.160156 54.546875 C 99.160156 54.832031 99.285156 54.964844 99.628906 54.976562 L 99.628906 55.230469 C 99.183594 55.199219 98.785156 55.167969 98.40625 55.167969 C 98.027344 55.167969 97.632812 55.199219 97.183594 55.230469 L 97.183594 54.976562 C 97.53125 54.964844 97.652344 54.835938 97.652344 54.546875 Z M 109.921875 49.203125 C 109.921875 48.917969 109.796875 48.785156 109.449219 48.773438 L 109.449219 48.507812 C 109.898438 48.539062 110.296875 48.570312 110.675781 48.570312 C 110.949219 48.570312 111.253906 48.570312 111.574219 48.507812 L 114.382812 53.066406 L 114.40625 53.066406 L 114.40625 49.347656 C 114.40625 48.816406 114.070312 48.773438 113.792969 48.773438 L 113.792969 48.507812 C 114.128906 48.539062 114.453125 48.570312 114.773438 48.570312 C 115.109375 48.570312 115.445312 48.539062 115.769531 48.507812 L 115.769531 48.773438 C 115.425781 48.785156 115.300781 48.917969 115.300781 49.203125 L 115.300781 55.230469 L 114.222656 55.230469 L 110.839844 49.96875 L 110.816406 49.96875 L 110.816406 54.398438 C 110.816406 54.929688 111.152344 54.96875 111.429688 54.96875 L 111.429688 55.226562 C 111.09375 55.195312 110.765625 55.164062 110.449219 55.164062 C 110.113281 55.164062 109.777344 55.195312 109.449219 55.226562 L 109.449219 54.96875 C 109.796875 54.960938 109.921875 54.828125 109.921875 54.542969 Z M 117.855469 52.914062 C 118.0625 54.058594 118.8125 54.59375 119.9375 54.59375 C 120.554688 54.59375 121.449219 54.414062 121.449219 53.628906 C 121.449219 52.996094 120.796875 52.832031 120.316406 52.683594 L 119.570312 52.460938 C 118.5 52.148438 117.429688 51.695312 117.429688 50.460938 C 117.429688 48.832031 119.003906 48.339844 120.566406 48.339844 C 121.226562 48.339844 121.910156 48.457031 122.515625 48.675781 C 122.515625 49.433594 122.558594 50.070312 122.601562 50.617188 L 122.339844 50.617188 C 122.117188 49.652344 121.332031 49.199219 120.386719 49.199219 C 119.863281 49.199219 118.984375 49.371094 118.984375 50.09375 C 118.984375 50.671875 119.484375 50.835938 119.914062 50.960938 L 121.015625 51.277344 C 122.074219 51.582031 123.0625 51.972656 123.0625 53.332031 C 123.0625 54.714844 121.667969 55.453125 119.957031 55.453125 C 119.191406 55.453125 118.382812 55.328125 117.679688 55.074219 C 117.679688 54.246094 117.648438 53.523438 117.597656 52.914062 Z M 64.871094 49.207031 C 64.871094 48.921875 64.75 48.789062 64.402344 48.78125 L 64.402344 48.515625 C 64.851562 48.546875 65.25 48.574219 65.625 48.574219 C 66.003906 48.574219 66.398438 48.546875 66.847656 48.515625 L 66.847656 48.78125 C 66.503906 48.789062 66.382812 48.921875 66.382812 49.207031 L 66.378906 51.226562 L 68.847656 51.226562 L 68.847656 49.207031 C 68.847656 48.921875 68.726562 48.789062 68.378906 48.78125 L 68.378906 48.515625 C 68.828125 48.546875 69.226562 48.574219 69.601562 48.574219 C 69.976562 48.574219 70.375 48.546875 70.824219 48.515625 L 70.824219 48.78125 C 70.476562 48.789062 70.355469 48.921875 70.355469 49.207031 L 70.355469 54.546875 C 70.355469 54.832031 70.476562 54.964844 70.824219 54.976562 L 70.824219 55.234375 C 70.375 55.207031 69.976562 55.175781 69.601562 55.175781 C 69.226562 55.175781 68.828125 55.207031 68.378906 55.234375 L 68.378906 54.976562 C 68.726562 54.964844 68.847656 54.835938 68.847656 54.546875 L 68.847656 52.203125 L 66.378906 52.203125 L 66.378906 54.546875 C 66.378906 54.832031 66.503906 54.964844 66.847656 54.976562 L 66.847656 55.234375 C 66.402344 55.207031 66.003906 55.175781 65.625 55.175781 C 65.25 55.175781 64.851562 55.207031 64.402344 55.234375 L 64.402344 54.976562 C 64.75 54.964844 64.871094 54.835938 64.871094 54.546875 Z M 74.59375 52.3125 C 74.859375 51.59375 75.183594 50.789062 75.417969 49.972656 L 75.441406 49.972656 C 75.644531 51 75.816406 51.65625 76.03125 52.3125 Z M 72.128906 55.230469 C 72.484375 55.199219 72.832031 55.171875 73.1875 55.171875 C 73.535156 55.171875 73.890625 55.199219 74.238281 55.230469 L 74.238281 54.976562 C 73.902344 54.953125 73.757812 54.835938 73.757812 54.648438 C 73.757812 54.546875 73.789062 54.433594 73.839844 54.292969 L 74.289062 53.089844 L 76.273438 53.089844 L 76.601562 54.082031 C 76.652344 54.210938 76.703125 54.445312 76.703125 54.589844 C 76.703125 54.824219 76.570312 54.90625 76.191406 54.976562 L 76.191406 55.230469 C 76.632812 55.199219 77.070312 55.171875 77.507812 55.171875 C 77.933594 55.171875 78.375 55.199219 78.800781 55.230469 L 78.800781 54.976562 C 78.496094 54.894531 78.34375 54.761719 78.191406 54.3125 L 76.316406 48.515625 C 76 48.546875 75.671875 48.574219 75.355469 48.574219 C 75.042969 48.574219 74.726562 48.546875 74.398438 48.515625 L 74.398438 48.78125 C 74.675781 48.78125 74.789062 48.941406 74.789062 49.046875 C 74.789062 49.148438 74.714844 49.289062 74.65625 49.441406 L 72.65625 54.507812 C 72.554688 54.773438 72.421875 54.9375 72.125 54.976562 L 72.125 55.230469 Z M 80.859375 50.164062 C 80.871094 49.882812 80.886719 49.59375 80.886719 49.1875 C 80.886719 48.871094 80.816406 48.832031 80.429688 48.78125 L 80.429688 48.515625 C 80.734375 48.546875 81.101562 48.574219 81.472656 48.574219 C 81.835938 48.574219 82.203125 48.546875 82.570312 48.515625 L 84.355469 53.238281 L 85.953125 48.515625 C 86.3125 48.546875 86.65625 48.574219 87.015625 48.574219 C 87.371094 48.574219 87.726562 48.546875 88.074219 48.515625 L 88.074219 48.78125 C 87.71875 48.808594 87.664062 48.921875 87.664062 49.199219 C 87.664062 49.484375 87.707031 49.941406 87.738281 50.289062 L 88.0625 54.640625 C 88.085938 54.90625 88.378906 54.945312 88.582031 54.972656 L 88.582031 55.230469 C 88.144531 55.199219 87.695312 55.167969 87.257812 55.167969 C 86.808594 55.167969 86.371094 55.199219 85.953125 55.230469 L 85.953125 54.972656 C 86.453125 54.914062 86.585938 54.820312 86.585938 54.355469 C 86.585938 54.109375 86.554688 53.648438 86.523438 53.3125 L 86.289062 50.277344 L 86.269531 50.277344 L 84.566406 55.285156 L 83.710938 55.285156 L 81.765625 50.21875 L 81.742188 50.21875 L 81.664062 53.203125 C 81.652344 53.730469 81.632812 54.007812 81.632812 54.28125 C 81.632812 54.792969 81.683594 54.90625 82.296875 54.972656 L 82.296875 55.230469 C 81.886719 55.199219 81.511719 55.167969 81.121094 55.167969 C 80.746094 55.167969 80.367188 55.199219 80.054688 55.230469 L 80.054688 54.972656 C 80.449219 54.945312 80.613281 54.851562 80.632812 54.425781 Z M 62.867188 54.859375 C 62.171875 55.394531 61.171875 55.609375 60.515625 55.609375 C 58.085938 55.609375 56.714844 53.722656 56.714844 51.792969 C 56.714844 49.816406 58.085938 47.902344 60.71875 47.90625 C 61.640625 47.90625 62.304688 48.082031 62.5625 48.183594 C 62.5625 48.957031 62.605469 49.699219 62.660156 50.4375 L 62.367188 50.4375 C 62.1875 49.496094 61.527344 48.996094 60.585938 48.996094 C 59.304688 48.996094 58.3125 50.007812 58.3125 51.710938 C 58.3125 52.996094 59.371094 54.449219 60.855469 54.449219 C 61.484375 54.449219 62.390625 54.105469 62.996094 53.59375 Z M 73.898438 58.914062 C 73.898438 58.695312 73.804688 58.589844 73.539062 58.585938 L 73.539062 58.367188 C 73.882812 58.394531 74.191406 58.414062 74.480469 58.414062 C 74.8125 58.414062 75.292969 58.394531 75.519531 58.367188 L 75.519531 58.585938 C 75.117188 58.601562 75.0625 58.796875 75.0625 59.015625 L 75.0625 62.871094 L 76.519531 62.871094 C 77.039062 62.871094 77.25 62.632812 77.382812 62.035156 L 77.640625 62.035156 C 77.542969 62.546875 77.457031 63.050781 77.449219 63.5625 L 73.539062 63.5625 L 73.539062 63.347656 C 73.804688 63.339844 73.898438 63.238281 73.898438 63.015625 Z M 78.90625 58.941406 C 78.90625 58.722656 78.8125 58.617188 78.542969 58.609375 L 78.542969 58.394531 L 82.519531 58.394531 C 82.523438 58.800781 82.542969 59.203125 82.582031 59.605469 L 82.367188 59.605469 C 82.289062 59.171875 82.175781 59.019531 81.753906 59.019531 L 80.070312 59.019531 L 80.070312 60.542969 L 81.117188 60.542969 C 81.46875 60.542969 81.523438 60.421875 81.570312 60.140625 L 81.785156 60.140625 C 81.757812 60.390625 81.742188 60.640625 81.738281 60.890625 C 81.738281 61.101562 81.761719 61.449219 81.785156 61.636719 L 81.570312 61.636719 C 81.523438 61.351562 81.46875 61.234375 81.117188 61.234375 L 80.070312 61.234375 L 80.070312 62.871094 L 81.839844 62.871094 C 82.265625 62.871094 82.398438 62.726562 82.53125 62.066406 L 82.792969 62.066406 C 82.738281 62.5625 82.707031 63.0625 82.699219 63.5625 L 78.542969 63.5625 L 78.542969 63.347656 C 78.8125 63.339844 78.90625 63.238281 78.90625 63.015625 Z M 83.738281 63.351562 C 83.964844 63.316406 84.066406 63.191406 84.144531 62.988281 L 85.6875 59.089844 C 85.734375 58.96875 85.792969 58.863281 85.792969 58.785156 C 85.792969 58.703125 85.703125 58.578125 85.492188 58.578125 L 85.492188 58.363281 C 85.742188 58.386719 85.988281 58.410156 86.230469 58.410156 C 86.476562 58.410156 86.726562 58.386719 86.972656 58.363281 L 88.417969 62.839844 C 88.539062 63.183594 88.65625 63.285156 88.890625 63.351562 L 88.890625 63.5625 C 88.558594 63.539062 88.222656 63.515625 87.890625 63.515625 C 87.554688 63.515625 87.214844 63.539062 86.875 63.5625 L 86.875 63.351562 C 87.167969 63.292969 87.269531 63.230469 87.269531 63.050781 C 87.269531 62.941406 87.230469 62.761719 87.191406 62.660156 L 86.9375 61.898438 L 85.40625 61.898438 L 85.058594 62.824219 C 85.019531 62.929688 84.996094 63.019531 84.996094 63.097656 C 84.996094 63.238281 85.105469 63.332031 85.363281 63.351562 L 85.363281 63.5625 C 85.097656 63.539062 84.824219 63.515625 84.554688 63.515625 C 84.277344 63.515625 84.011719 63.539062 83.738281 63.5625 Z M 86.75 61.300781 C 86.585938 60.792969 86.449219 60.289062 86.292969 59.496094 L 86.277344 59.496094 C 86.097656 60.121094 85.84375 60.746094 85.640625 61.300781 Z M 93.097656 61.722656 C 93.097656 61.40625 92.957031 61.394531 92.605469 61.386719 L 92.605469 61.121094 C 92.925781 61.148438 93.25 61.171875 93.578125 61.171875 C 93.933594 61.171875 94.28125 61.148438 94.632812 61.121094 L 94.632812 61.371094 C 94.359375 61.378906 94.21875 61.449219 94.21875 61.800781 L 94.21875 63.5625 L 93.757812 63.5625 L 93.578125 63.035156 C 93.082031 63.5 92.5625 63.664062 92.027344 63.664062 C 90.550781 63.664062 89.605469 62.445312 89.605469 61.03125 C 89.605469 59.324219 90.746094 58.289062 92.445312 58.289062 C 92.988281 58.289062 93.574219 58.390625 93.996094 58.65625 C 93.996094 59.039062 94.011719 59.484375 94.046875 60.027344 L 93.820312 60.027344 C 93.71875 59.328125 93.050781 58.980469 92.398438 58.980469 C 91.304688 58.980469 90.769531 59.816406 90.769531 60.832031 C 90.769531 61.808594 91.320312 62.910156 92.234375 62.910156 C 92.792969 62.910156 93.097656 62.648438 93.097656 62.289062 Z M 96.214844 58.914062 C 96.214844 58.695312 96.121094 58.589844 95.855469 58.585938 L 95.855469 58.367188 C 96.15625 58.398438 96.457031 58.414062 96.757812 58.414062 C 97.167969 58.414062 97.492188 58.394531 97.804688 58.367188 L 97.804688 58.585938 C 97.464844 58.601562 97.378906 58.664062 97.378906 58.96875 L 97.378906 61.910156 C 97.378906 62.800781 97.75 62.972656 98.386719 62.972656 C 99.023438 62.972656 99.394531 62.785156 99.394531 61.910156 L 99.394531 58.96875 C 99.394531 58.664062 99.308594 58.601562 98.96875 58.585938 L 98.96875 58.367188 C 99.285156 58.394531 99.605469 58.414062 100.015625 58.414062 C 100.347656 58.414062 100.667969 58.394531 100.921875 58.367188 L 100.921875 58.585938 C 100.652344 58.589844 100.558594 58.695312 100.558594 58.914062 L 100.558594 61.746094 C 100.558594 63.203125 99.804688 63.664062 98.386719 63.664062 C 96.96875 63.664062 96.214844 63.203125 96.214844 61.855469 Z M 102.585938 58.941406 C 102.585938 58.722656 102.492188 58.617188 102.226562 58.609375 L 102.226562 58.394531 L 106.199219 58.394531 C 106.207031 58.828125 106.222656 59.179688 106.261719 59.605469 L 106.046875 59.605469 C 105.96875 59.171875 105.859375 59.019531 105.433594 59.019531 L 103.75 59.019531 L 103.75 60.519531 L 104.796875 60.519531 C 105.148438 60.519531 105.207031 60.402344 105.253906 60.117188 L 105.46875 60.117188 C 105.441406 60.367188 105.425781 60.617188 105.417969 60.867188 C 105.417969 61.078125 105.445312 61.425781 105.46875 61.613281 L 105.253906 61.613281 C 105.207031 61.328125 105.148438 61.210938 104.796875 61.210938 L 103.75 61.210938 L 103.75 62.871094 L 105.519531 62.871094 C 105.945312 62.871094 106.078125 62.726562 106.210938 62.066406 L 106.472656 62.066406 C 106.417969 62.566406 106.386719 63.0625 106.378906 63.5625 L 102.222656 63.5625 L 102.222656 63.347656 C 102.492188 63.339844 102.585938 63.238281 102.585938 63.015625 Z M 82.417969 46.648438 C 84.148438 44.664062 86.695312 43.414062 89.535156 43.414062 C 92.453125 43.414062 95.0625 44.738281 96.796875 46.820312 L 97.253906 46.390625 C 95.40625 44.195312 92.640625 42.800781 89.546875 42.800781 C 86.535156 42.800781 83.832031 44.125 81.988281 46.222656 Z M 88.726562 41.640625 L 85.964844 42.214844 L 85.265625 38.867188 L 87.992188 38.300781 L 88.121094 38.914062 L 86.328125 39.289062 L 86.476562 39.988281 L 88.183594 39.632812 L 88.3125 40.246094 L 86.601562 40.601562 L 86.769531 41.410156 L 88.601562 41.027344 Z M 94.003906 39.480469 L 92.351562 39.132812 L 92.199219 39.878906 L 93.84375 40.226562 L 93.714844 40.839844 L 92.070312 40.492188 L 91.777344 41.867188 L 90.84375 41.667969 L 91.550781 38.324219 L 94.132812 38.867188 Z M 97.988281 45.203125 L 97.167969 44.429688 L 97.296875 43.691406 L 95.890625 42.714844 L 95.269531 43.109375 L 94.335938 42.585938 L 97.660156 40.609375 L 98.566406 41.238281 Z M 97.707031 41.546875 L 96.449219 42.335938 L 97.449219 43.03125 Z M 82.796875 43.832031 C 82.183594 44.316406 81.144531 44.714844 80.382812 43.824219 L 79.285156 42.417969 L 80.019531 41.835938 L 81.097656 43.21875 C 81.484375 43.675781 81.972656 43.589844 82.363281 43.28125 C 82.75 42.976562 82.953125 42.519531 82.597656 42.035156 L 81.519531 40.65625 L 82.253906 40.078125 L 83.351562 41.484375 C 84.007812 42.382812 83.601562 43.191406 82.796875 43.832031 Z M 82.796875 43.832031 " fill-opacity="1" fill-rule="evenodd"/><path fill="#000000" d="M 101.351562 41.863281 C 98.40625 38.765625 94.246094 36.832031 89.632812 36.832031 C 84.964844 36.832031 80.757812 38.8125 77.808594 41.972656 L 77.308594 41.46875 C 80.410156 38.222656 84.78125 36.199219 89.621094 36.199219 C 94.425781 36.199219 98.765625 38.191406 101.859375 41.390625 Z M 107.78125 66.171875 C 107.613281 66.171875 107.449219 66.140625 107.292969 66.074219 C 107.136719 66.011719 106.996094 65.917969 106.875 65.800781 C 106.757812 65.679688 106.664062 65.542969 106.597656 65.382812 C 106.53125 65.226562 106.5 65.066406 106.5 64.894531 C 106.5 64.726562 106.535156 64.5625 106.597656 64.40625 C 106.664062 64.25 106.757812 64.109375 106.875 63.992188 C 106.996094 63.871094 107.136719 63.777344 107.292969 63.714844 C 107.449219 63.648438 107.613281 63.617188 107.78125 63.613281 L 107.78125 63.738281 C 107.628906 63.738281 107.480469 63.769531 107.339844 63.828125 C 107.199219 63.886719 107.074219 63.96875 106.964844 64.078125 C 106.859375 64.1875 106.777344 64.3125 106.71875 64.453125 C 106.660156 64.59375 106.628906 64.742188 106.628906 64.894531 C 106.628906 65.046875 106.660156 65.195312 106.714844 65.335938 C 106.773438 65.480469 106.859375 65.605469 106.964844 65.714844 C 107.074219 65.824219 107.199219 65.90625 107.339844 65.964844 C 107.480469 66.023438 107.628906 66.054688 107.78125 66.054688 Z M 107.78125 66.171875 " fill-opacity="1" fill-rule="evenodd"/><path fill="#000000" d="M 107.253906 64.132812 L 107.769531 64.132812 C 107.96875 64.132812 108.082031 64.160156 108.179688 64.234375 C 108.28125 64.308594 108.332031 64.410156 108.332031 64.535156 C 108.332031 64.714844 108.203125 64.855469 107.996094 64.898438 C 108.097656 64.929688 108.140625 64.953125 108.1875 65.003906 C 108.238281 65.070312 108.261719 65.140625 108.304688 65.351562 L 108.328125 65.46875 C 108.34375 65.554688 108.347656 65.566406 108.375 65.617188 L 108.222656 65.617188 C 108.191406 65.550781 108.183594 65.523438 108.164062 65.425781 C 108.113281 65.117188 108.105469 65.097656 108.027344 65.023438 C 107.972656 64.96875 107.890625 64.949219 107.722656 64.949219 L 107.394531 64.949219 L 107.394531 65.617188 L 107.253906 65.617188 Z M 107.777344 64.835938 C 108.027344 64.835938 108.183594 64.722656 108.183594 64.535156 C 108.183594 64.339844 108.035156 64.238281 107.75 64.238281 L 107.394531 64.238281 L 107.394531 64.832031 L 107.777344 64.832031 Z M 107.777344 64.835938 " fill-opacity="1" fill-rule="evenodd"/><path fill="#000000" d="M 107.78125 66.171875 C 108.488281 66.171875 109.066406 65.605469 109.066406 64.894531 C 109.066406 64.1875 108.488281 63.613281 107.78125 63.613281 L 107.78125 63.738281 C 108.417969 63.738281 108.929688 64.253906 108.933594 64.894531 C 108.933594 65.539062 108.417969 66.054688 107.78125 66.054688 Z M 107.78125 66.171875 " fill-opacity="1" fill-rule="evenodd"/></svg>