<svg xmlns="http://www.w3.org/2000/svg" xmlns:xlink="http://www.w3.org/1999/xlink" width="500" zoomAndPan="magnify" viewBox="0 0 375 374.999991" height="500" preserveAspectRatio="xMidYMid meet" version="1.2"><defs><clipPath id="b337d4ed0f"><path d="M 211.679688 133 L 276 133 L 276 292 L 211.679688 292 Z M 211.679688 133 "/></clipPath><clipPath id="fd651a3e6e"><rect x="0" width="198" y="0" height="60"/></clipPath><clipPath id="f5e405215f"><rect x="0" width="187" y="0" height="70"/></clipPath></defs><g id="0a23fccf1c"><g clip-rule="nonzero" clip-path="url(#b337d4ed0f)"><path style=" stroke:none;fill-rule:nonzero;fill:#d52b1e;fill-opacity:1;" d="M 275.902344 218.960938 L 247.195312 288.71875 C 231.429688 297.828125 211.710938 286.4375 211.710938 268.203125 L 211.710938 157.460938 C 211.710938 139.226562 231.429688 127.835938 247.195312 136.945312 L 265.296875 147.414062 L 242.121094 218.960938 Z M 275.902344 218.960938 "/></g><path style=" stroke:none;fill-rule:nonzero;fill:#21468b;fill-opacity:1;" d="M 343.003906 233.347656 L 247.195312 288.71875 L 315.4375 201.765625 L 271.59375 201.765625 L 286.289062 159.539062 L 343.003906 192.332031 C 358.773438 201.441406 358.773438 224.222656 343.003906 233.347656 Z M 343.003906 233.347656 "/><g transform="matrix(1,0,0,1,12,153)"><g clip-path="url(#fd651a3e6e)"><g style="fill:#ffffff;fill-opacity:0.4;"><g transform="translate(1.404902, 47.42485)"><path style="stroke:none" d="M 17.203125 -39.921875 C 17.359375 -39.960938 17.671875 -39.988281 18.140625 -40 C 18.609375 -40.019531 19.210938 -40.015625 19.953125 -39.984375 C 21.203125 -39.941406 22.394531 -39.859375 23.53125 -39.734375 C 24.664062 -39.617188 25.757812 -39.414062 26.8125 -39.125 C 27.863281 -38.832031 28.894531 -38.421875 29.90625 -37.890625 C 30.925781 -37.367188 31.90625 -36.679688 32.84375 -35.828125 C 34.363281 -34.421875 35.453125 -32.738281 36.109375 -30.78125 C 36.191406 -30.59375 36.28125 -30.332031 36.375 -30 C 36.476562 -29.664062 36.566406 -29.285156 36.640625 -28.859375 C 36.710938 -28.429688 36.78125 -28.078125 36.84375 -27.796875 C 36.90625 -27.523438 36.9375 -27.332031 36.9375 -27.21875 L 36.9375 -26.921875 L 25.46875 -26.921875 L 25.34375 -27.5625 C 25.226562 -28.269531 24.953125 -28.875 24.515625 -29.375 C 24.085938 -29.882812 23.59375 -30.316406 23.03125 -30.671875 C 22.46875 -31.023438 21.851562 -31.28125 21.1875 -31.4375 C 20.519531 -31.59375 19.859375 -31.671875 19.203125 -31.671875 C 16.773438 -31.671875 15.523438 -30.519531 15.453125 -28.21875 C 15.453125 -27.3125 15.921875 -26.523438 16.859375 -25.859375 C 17.796875 -25.203125 19.472656 -24.523438 21.890625 -23.828125 C 23.804688 -23.203125 25.4375 -22.65625 26.78125 -22.1875 C 28.125 -21.71875 29.242188 -21.269531 30.140625 -20.84375 C 31.003906 -20.40625 31.765625 -19.960938 32.421875 -19.515625 C 33.085938 -19.066406 33.675781 -18.609375 34.1875 -18.140625 C 35.46875 -16.890625 36.445312 -15.425781 37.125 -13.75 C 37.8125 -12.070312 38.117188 -10.335938 38.046875 -8.546875 C 37.890625 -6.003906 37.242188 -3.875 36.109375 -2.15625 C 34.984375 -0.445312 33.539062 0.929688 31.78125 1.984375 C 30.03125 3.046875 28.070312 3.800781 25.90625 4.25 C 23.738281 4.695312 21.539062 4.9375 19.3125 4.96875 C 17.320312 4.96875 15.445312 4.753906 13.6875 4.328125 C 11.9375 3.898438 10.347656 3.238281 8.921875 2.34375 C 7.503906 1.445312 6.273438 0.273438 5.234375 -1.171875 C 4.203125 -2.617188 3.414062 -4.351562 2.875 -6.375 C 2.476562 -7.664062 2.28125 -8.625 2.28125 -9.25 C 2.28125 -9.40625 4.234375 -9.441406 8.140625 -9.359375 L 14.046875 -9.359375 L 14.109375 -8.546875 C 14.335938 -7.410156 14.832031 -6.40625 15.59375 -5.53125 C 16.351562 -4.65625 17.242188 -4.0625 18.265625 -3.75 C 18.535156 -3.664062 18.84375 -3.601562 19.1875 -3.5625 C 19.539062 -3.53125 19.9375 -3.515625 20.375 -3.515625 C 21.34375 -3.515625 22.273438 -3.6875 23.171875 -4.03125 C 24.078125 -4.382812 24.722656 -5.070312 25.109375 -6.09375 C 25.492188 -6.90625 25.535156 -7.835938 25.234375 -8.890625 C 24.921875 -10.023438 24.453125 -10.828125 23.828125 -11.296875 C 23.078125 -11.878906 21.066406 -12.617188 17.796875 -13.515625 C 16.191406 -13.953125 14.773438 -14.382812 13.546875 -14.8125 C 12.316406 -15.238281 11.253906 -15.664062 10.359375 -16.09375 C 7.785156 -17.34375 5.960938 -18.875 4.890625 -20.6875 C 3.816406 -22.5 3.335938 -24.890625 3.453125 -27.859375 C 3.535156 -29.734375 3.90625 -31.363281 4.5625 -32.75 C 5.226562 -34.132812 6.113281 -35.3125 7.21875 -36.28125 C 8.332031 -37.257812 9.628906 -38.039062 11.109375 -38.625 C 12.597656 -39.21875 14.203125 -39.609375 15.921875 -39.796875 C 16.148438 -39.796875 16.398438 -39.816406 16.671875 -39.859375 C 16.953125 -39.898438 17.128906 -39.921875 17.203125 -39.921875 Z M 17.203125 -39.921875 "/></g></g><g style="fill:#ffffff;fill-opacity:0.4;"><g transform="translate(39.326074, 47.42485)"><path style="stroke:none" d="M 2.40625 -39.328125 L 1.875 -39.5625 L 16.390625 -39.5625 L 16.453125 -23.875 L 16.453125 -8.421875 L 16.796875 -7.546875 C 17.347656 -5.796875 18.734375 -4.566406 20.953125 -3.859375 C 21.460938 -3.816406 21.71875 -3.679688 21.71875 -3.453125 C 21.71875 -3.378906 21.71875 -2.988281 21.71875 -2.28125 C 21.71875 -1.582031 21.695312 -0.566406 21.65625 0.765625 L 21.65625 4.796875 C 20.019531 4.796875 18.378906 4.71875 16.734375 4.5625 C 15.097656 4.40625 13.539062 3.898438 12.0625 3.046875 C 10.34375 2.222656 8.847656 1.09375 7.578125 -0.34375 C 6.304688 -1.789062 5.378906 -3.410156 4.796875 -5.203125 C 4.640625 -5.753906 4.507812 -6.3125 4.40625 -6.875 C 4.3125 -7.4375 4.25 -8.050781 4.21875 -8.71875 C 4.175781 -9.34375 4.144531 -10.804688 4.125 -13.109375 C 4.101562 -15.410156 4.09375 -18.515625 4.09375 -22.421875 L 4.09375 -25.234375 C 4.132812 -28.390625 4.144531 -30.90625 4.125 -32.78125 C 4.101562 -34.65625 4.070312 -35.863281 4.03125 -36.40625 C 4 -37.414062 3.804688 -38.117188 3.453125 -38.515625 C 3.097656 -38.867188 2.75 -39.140625 2.40625 -39.328125 Z M 26.109375 -39.390625 C 25.953125 -39.429688 25.988281 -39.488281 26.21875 -39.5625 L 40.796875 -39.5625 L 40.796875 -24.34375 C 40.796875 -19.425781 40.785156 -15.640625 40.765625 -12.984375 C 40.742188 -10.335938 40.710938 -8.859375 40.671875 -8.546875 C 40.441406 -6.515625 39.882812 -4.671875 39 -3.015625 C 38.125 -1.359375 37.003906 0.0351562 35.640625 1.171875 C 34.273438 2.304688 32.710938 3.179688 30.953125 3.796875 C 29.203125 4.421875 27.332031 4.734375 25.34375 4.734375 L 23.296875 4.734375 L 23.359375 0.34375 L 23.359375 -3.859375 L 23.765625 -3.921875 C 24.816406 -4.117188 25.769531 -4.65625 26.625 -5.53125 C 27.488281 -6.40625 28.097656 -7.445312 28.453125 -8.65625 C 28.566406 -9.125 28.625 -13.847656 28.625 -22.828125 C 28.625 -31.960938 28.566406 -36.703125 28.453125 -37.046875 C 28.097656 -38.140625 27.316406 -38.921875 26.109375 -39.390625 Z M 26.109375 -39.390625 "/></g></g><g style="fill:#ffffff;fill-opacity:0.4;"><g transform="translate(81.928943, 47.42485)"><path style="stroke:none" d="M 3.390625 -39.453125 C 3.359375 -39.453125 3.421875 -39.472656 3.578125 -39.515625 C 3.765625 -39.546875 4.347656 -39.5625 5.328125 -39.5625 C 6.304688 -39.5625 7.726562 -39.5625 9.59375 -39.5625 L 16.09375 -39.5625 L 16.09375 4.453125 L 4.453125 4.453125 L 4.453125 -16.734375 C 4.453125 -23.835938 4.441406 -29.164062 4.421875 -32.71875 C 4.398438 -36.269531 4.367188 -38.125 4.328125 -38.28125 C 4.210938 -38.789062 3.898438 -39.179688 3.390625 -39.453125 Z M 17.625 -39.5625 L 21.953125 -39.5625 C 23.078125 -39.5625 24.019531 -39.5625 24.78125 -39.5625 C 25.539062 -39.5625 26.140625 -39.546875 26.578125 -39.515625 C 26.960938 -39.472656 27.347656 -39.421875 27.734375 -39.359375 C 28.128906 -39.304688 28.523438 -39.203125 28.921875 -39.046875 C 29.972656 -38.765625 30.984375 -38.320312 31.953125 -37.71875 C 32.929688 -37.113281 33.820312 -36.398438 34.625 -35.578125 C 35.425781 -34.765625 36.117188 -33.859375 36.703125 -32.859375 C 37.285156 -31.867188 37.734375 -30.863281 38.046875 -29.84375 C 39.179688 -26.257812 38.925781 -22.828125 37.28125 -19.546875 C 36.34375 -17.671875 35.09375 -16.109375 33.53125 -14.859375 C 31.976562 -13.617188 30.207031 -12.703125 28.21875 -12.109375 C 26.8125 -11.765625 24.46875 -11.59375 21.1875 -11.59375 L 17.625 -11.59375 L 17.625 -19.84375 L 19.953125 -19.90625 C 21.441406 -19.90625 22.378906 -19.941406 22.765625 -20.015625 C 25.421875 -20.910156 26.648438 -22.921875 26.453125 -26.046875 C 26.335938 -28.234375 25.5 -29.640625 23.9375 -30.265625 C 23.582031 -30.421875 22.429688 -30.5 20.484375 -30.5 L 17.625 -30.5 Z M 17.625 -39.5625 "/></g></g><g style="fill:#ffffff;fill-opacity:0.4;"><g transform="translate(119.967158, 47.42485)"><path style="stroke:none" d="M 3.34375 -39.453125 C 4.394531 -39.453125 6.207031 -39.472656 8.78125 -39.515625 C 11 -39.515625 14.164062 -39.519531 18.28125 -39.53125 C 22.40625 -39.550781 27.84375 -39.5625 34.59375 -39.5625 L 34.59375 -30.5 L 16.09375 -30.5 L 16.09375 -4.625 L 36.296875 -4.625 L 36.296875 -4.328125 C 36.296875 -4.367188 36.265625 -4.257812 36.203125 -4 C 36.140625 -3.75 36.0625 -3.410156 35.96875 -2.984375 C 35.875 -2.554688 35.773438 -2.078125 35.671875 -1.546875 C 35.578125 -1.023438 35.472656 -0.507812 35.359375 0 C 34.765625 2.769531 34.453125 4.191406 34.421875 4.265625 C 34.378906 4.390625 29.382812 4.453125 19.4375 4.453125 L 4.5625 4.453125 L 4.5625 -16.796875 C 4.5625 -23.941406 4.550781 -29.238281 4.53125 -32.6875 C 4.507812 -36.144531 4.460938 -38.007812 4.390625 -38.28125 C 4.273438 -38.863281 3.925781 -39.253906 3.34375 -39.453125 Z M 18.03125 -22.359375 L 33.65625 -22.359375 L 33.65625 -13.40625 L 18.03125 -13.40625 Z M 18.03125 -22.359375 "/></g></g><g style="fill:#ffffff;fill-opacity:0.4;"><g transform="translate(155.957138, 47.42485)"><path style="stroke:none" d="M 16.390625 -21.015625 L 19.78125 -21.015625 C 20.757812 -21.015625 21.539062 -21.023438 22.125 -21.046875 C 22.707031 -21.066406 23.117188 -21.09375 23.359375 -21.125 C 23.785156 -21.164062 24.332031 -21.34375 25 -21.65625 C 25.8125 -22.082031 26.414062 -22.726562 26.8125 -23.59375 C 27.351562 -24.800781 27.445312 -26.085938 27.09375 -27.453125 C 26.75 -28.890625 25.953125 -29.84375 24.703125 -30.3125 L 24.109375 -30.671875 L 20.25 -30.734375 L 17.671875 -30.734375 L 17.671875 -39.5625 C 19.660156 -39.5625 21.269531 -39.5625 22.5 -39.5625 C 23.726562 -39.5625 24.691406 -39.5625 25.390625 -39.5625 C 26.097656 -39.5625 26.609375 -39.550781 26.921875 -39.53125 C 27.234375 -39.519531 27.445312 -39.515625 27.5625 -39.515625 C 30.882812 -39.234375 33.539062 -38.28125 35.53125 -36.65625 C 37.519531 -35.039062 38.828125 -32.578125 39.453125 -29.265625 C 39.960938 -26.066406 39.601562 -23.394531 38.375 -21.25 C 37.144531 -19.101562 35.179688 -17.816406 32.484375 -17.390625 L 31.671875 -17.328125 L 32.421875 -17.15625 C 35.003906 -16.757812 36.757812 -15.488281 37.6875 -13.34375 C 37.96875 -12.800781 38.191406 -12 38.359375 -10.9375 C 38.535156 -9.882812 38.703125 -8.539062 38.859375 -6.90625 C 39.328125 -0.820312 39.5625 2.820312 39.5625 4.03125 L 39.5625 4.453125 L 27.15625 4.453125 L 27.046875 3.921875 C 27.003906 3.691406 26.972656 3.289062 26.953125 2.71875 C 26.929688 2.15625 26.882812 1.441406 26.8125 0.578125 C 26.457031 -5.859375 25.988281 -9.703125 25.40625 -10.953125 C 25.207031 -11.335938 24.539062 -11.644531 23.40625 -11.875 C 22.976562 -11.957031 21.671875 -12.035156 19.484375 -12.109375 L 16.390625 -12.109375 L 16.390625 4.453125 L 4.5 4.453125 L 4.5 -16.859375 C 4.539062 -22.003906 4.550781 -26.097656 4.53125 -29.140625 C 4.507812 -32.191406 4.5 -34.242188 4.5 -35.296875 C 4.425781 -37.285156 4.347656 -38.359375 4.265625 -38.515625 C 4.078125 -38.984375 3.769531 -39.316406 3.34375 -39.515625 C 3.570312 -39.515625 3.84375 -39.515625 4.15625 -39.515625 C 4.46875 -39.515625 4.828125 -39.519531 5.234375 -39.53125 C 5.648438 -39.550781 6.128906 -39.5625 6.671875 -39.5625 L 16.390625 -39.5625 Z M 16.390625 -21.015625 "/></g></g><g style="fill:#0039a6;fill-opacity:1;"><g transform="translate(1.404902, 47.42485)"><path style="stroke:none" d="M 17.203125 -39.921875 C 17.359375 -39.960938 17.671875 -39.988281 18.140625 -40 C 18.609375 -40.019531 19.210938 -40.015625 19.953125 -39.984375 C 21.203125 -39.941406 22.394531 -39.859375 23.53125 -39.734375 C 24.664062 -39.617188 25.757812 -39.414062 26.8125 -39.125 C 27.863281 -38.832031 28.894531 -38.421875 29.90625 -37.890625 C 30.925781 -37.367188 31.90625 -36.679688 32.84375 -35.828125 C 34.363281 -34.421875 35.453125 -32.738281 36.109375 -30.78125 C 36.191406 -30.59375 36.28125 -30.332031 36.375 -30 C 36.476562 -29.664062 36.566406 -29.285156 36.640625 -28.859375 C 36.710938 -28.429688 36.78125 -28.078125 36.84375 -27.796875 C 36.90625 -27.523438 36.9375 -27.332031 36.9375 -27.21875 L 36.9375 -26.921875 L 25.46875 -26.921875 L 25.34375 -27.5625 C 25.226562 -28.269531 24.953125 -28.875 24.515625 -29.375 C 24.085938 -29.882812 23.59375 -30.316406 23.03125 -30.671875 C 22.46875 -31.023438 21.851562 -31.28125 21.1875 -31.4375 C 20.519531 -31.59375 19.859375 -31.671875 19.203125 -31.671875 C 16.773438 -31.671875 15.523438 -30.519531 15.453125 -28.21875 C 15.453125 -27.3125 15.921875 -26.523438 16.859375 -25.859375 C 17.796875 -25.203125 19.472656 -24.523438 21.890625 -23.828125 C 23.804688 -23.203125 25.4375 -22.65625 26.78125 -22.1875 C 28.125 -21.71875 29.242188 -21.269531 30.140625 -20.84375 C 31.003906 -20.40625 31.765625 -19.960938 32.421875 -19.515625 C 33.085938 -19.066406 33.675781 -18.609375 34.1875 -18.140625 C 35.46875 -16.890625 36.445312 -15.425781 37.125 -13.75 C 37.8125 -12.070312 38.117188 -10.335938 38.046875 -8.546875 C 37.890625 -6.003906 37.242188 -3.875 36.109375 -2.15625 C 34.984375 -0.445312 33.539062 0.929688 31.78125 1.984375 C 30.03125 3.046875 28.070312 3.800781 25.90625 4.25 C 23.738281 4.695312 21.539062 4.9375 19.3125 4.96875 C 17.320312 4.96875 15.445312 4.753906 13.6875 4.328125 C 11.9375 3.898438 10.347656 3.238281 8.921875 2.34375 C 7.503906 1.445312 6.273438 0.273438 5.234375 -1.171875 C 4.203125 -2.617188 3.414062 -4.351562 2.875 -6.375 C 2.476562 -7.664062 2.28125 -8.625 2.28125 -9.25 C 2.28125 -9.40625 4.234375 -9.441406 8.140625 -9.359375 L 14.046875 -9.359375 L 14.109375 -8.546875 C 14.335938 -7.410156 14.832031 -6.40625 15.59375 -5.53125 C 16.351562 -4.65625 17.242188 -4.0625 18.265625 -3.75 C 18.535156 -3.664062 18.84375 -3.601562 19.1875 -3.5625 C 19.539062 -3.53125 19.9375 -3.515625 20.375 -3.515625 C 21.34375 -3.515625 22.273438 -3.6875 23.171875 -4.03125 C 24.078125 -4.382812 24.722656 -5.070312 25.109375 -6.09375 C 25.492188 -6.90625 25.535156 -7.835938 25.234375 -8.890625 C 24.921875 -10.023438 24.453125 -10.828125 23.828125 -11.296875 C 23.078125 -11.878906 21.066406 -12.617188 17.796875 -13.515625 C 16.191406 -13.953125 14.773438 -14.382812 13.546875 -14.8125 C 12.316406 -15.238281 11.253906 -15.664062 10.359375 -16.09375 C 7.785156 -17.34375 5.960938 -18.875 4.890625 -20.6875 C 3.816406 -22.5 3.335938 -24.890625 3.453125 -27.859375 C 3.535156 -29.734375 3.90625 -31.363281 4.5625 -32.75 C 5.226562 -34.132812 6.113281 -35.3125 7.21875 -36.28125 C 8.332031 -37.257812 9.628906 -38.039062 11.109375 -38.625 C 12.597656 -39.21875 14.203125 -39.609375 15.921875 -39.796875 C 16.148438 -39.796875 16.398438 -39.816406 16.671875 -39.859375 C 16.953125 -39.898438 17.128906 -39.921875 17.203125 -39.921875 Z M 17.203125 -39.921875 "/></g></g><g style="fill:#0039a6;fill-opacity:1;"><g transform="translate(39.326074, 47.42485)"><path style="stroke:none" d="M 2.40625 -39.328125 L 1.875 -39.5625 L 16.390625 -39.5625 L 16.453125 -23.875 L 16.453125 -8.421875 L 16.796875 -7.546875 C 17.347656 -5.796875 18.734375 -4.566406 20.953125 -3.859375 C 21.460938 -3.816406 21.71875 -3.679688 21.71875 -3.453125 C 21.71875 -3.378906 21.71875 -2.988281 21.71875 -2.28125 C 21.71875 -1.582031 21.695312 -0.566406 21.65625 0.765625 L 21.65625 4.796875 C 20.019531 4.796875 18.378906 4.71875 16.734375 4.5625 C 15.097656 4.40625 13.539062 3.898438 12.0625 3.046875 C 10.34375 2.222656 8.847656 1.09375 7.578125 -0.34375 C 6.304688 -1.789062 5.378906 -3.410156 4.796875 -5.203125 C 4.640625 -5.753906 4.507812 -6.3125 4.40625 -6.875 C 4.3125 -7.4375 4.25 -8.050781 4.21875 -8.71875 C 4.175781 -9.34375 4.144531 -10.804688 4.125 -13.109375 C 4.101562 -15.410156 4.09375 -18.515625 4.09375 -22.421875 L 4.09375 -25.234375 C 4.132812 -28.390625 4.144531 -30.90625 4.125 -32.78125 C 4.101562 -34.65625 4.070312 -35.863281 4.03125 -36.40625 C 4 -37.414062 3.804688 -38.117188 3.453125 -38.515625 C 3.097656 -38.867188 2.75 -39.140625 2.40625 -39.328125 Z M 26.109375 -39.390625 C 25.953125 -39.429688 25.988281 -39.488281 26.21875 -39.5625 L 40.796875 -39.5625 L 40.796875 -24.34375 C 40.796875 -19.425781 40.785156 -15.640625 40.765625 -12.984375 C 40.742188 -10.335938 40.710938 -8.859375 40.671875 -8.546875 C 40.441406 -6.515625 39.882812 -4.671875 39 -3.015625 C 38.125 -1.359375 37.003906 0.0351562 35.640625 1.171875 C 34.273438 2.304688 32.710938 3.179688 30.953125 3.796875 C 29.203125 4.421875 27.332031 4.734375 25.34375 4.734375 L 23.296875 4.734375 L 23.359375 0.34375 L 23.359375 -3.859375 L 23.765625 -3.921875 C 24.816406 -4.117188 25.769531 -4.65625 26.625 -5.53125 C 27.488281 -6.40625 28.097656 -7.445312 28.453125 -8.65625 C 28.566406 -9.125 28.625 -13.847656 28.625 -22.828125 C 28.625 -31.960938 28.566406 -36.703125 28.453125 -37.046875 C 28.097656 -38.140625 27.316406 -38.921875 26.109375 -39.390625 Z M 26.109375 -39.390625 "/></g></g><g style="fill:#0039a6;fill-opacity:1;"><g transform="translate(81.928943, 47.42485)"><path style="stroke:none" d="M 3.390625 -39.453125 C 3.359375 -39.453125 3.421875 -39.472656 3.578125 -39.515625 C 3.765625 -39.546875 4.347656 -39.5625 5.328125 -39.5625 C 6.304688 -39.5625 7.726562 -39.5625 9.59375 -39.5625 L 16.09375 -39.5625 L 16.09375 4.453125 L 4.453125 4.453125 L 4.453125 -16.734375 C 4.453125 -23.835938 4.441406 -29.164062 4.421875 -32.71875 C 4.398438 -36.269531 4.367188 -38.125 4.328125 -38.28125 C 4.210938 -38.789062 3.898438 -39.179688 3.390625 -39.453125 Z M 17.625 -39.5625 L 21.953125 -39.5625 C 23.078125 -39.5625 24.019531 -39.5625 24.78125 -39.5625 C 25.539062 -39.5625 26.140625 -39.546875 26.578125 -39.515625 C 26.960938 -39.472656 27.347656 -39.421875 27.734375 -39.359375 C 28.128906 -39.304688 28.523438 -39.203125 28.921875 -39.046875 C 29.972656 -38.765625 30.984375 -38.320312 31.953125 -37.71875 C 32.929688 -37.113281 33.820312 -36.398438 34.625 -35.578125 C 35.425781 -34.765625 36.117188 -33.859375 36.703125 -32.859375 C 37.285156 -31.867188 37.734375 -30.863281 38.046875 -29.84375 C 39.179688 -26.257812 38.925781 -22.828125 37.28125 -19.546875 C 36.34375 -17.671875 35.09375 -16.109375 33.53125 -14.859375 C 31.976562 -13.617188 30.207031 -12.703125 28.21875 -12.109375 C 26.8125 -11.765625 24.46875 -11.59375 21.1875 -11.59375 L 17.625 -11.59375 L 17.625 -19.84375 L 19.953125 -19.90625 C 21.441406 -19.90625 22.378906 -19.941406 22.765625 -20.015625 C 25.421875 -20.910156 26.648438 -22.921875 26.453125 -26.046875 C 26.335938 -28.234375 25.5 -29.640625 23.9375 -30.265625 C 23.582031 -30.421875 22.429688 -30.5 20.484375 -30.5 L 17.625 -30.5 Z M 17.625 -39.5625 "/></g></g><g style="fill:#0039a6;fill-opacity:1;"><g transform="translate(119.967158, 47.42485)"><path style="stroke:none" d="M 3.34375 -39.453125 C 4.394531 -39.453125 6.207031 -39.472656 8.78125 -39.515625 C 11 -39.515625 14.164062 -39.519531 18.28125 -39.53125 C 22.40625 -39.550781 27.84375 -39.5625 34.59375 -39.5625 L 34.59375 -30.5 L 16.09375 -30.5 L 16.09375 -4.625 L 36.296875 -4.625 L 36.296875 -4.328125 C 36.296875 -4.367188 36.265625 -4.257812 36.203125 -4 C 36.140625 -3.75 36.0625 -3.410156 35.96875 -2.984375 C 35.875 -2.554688 35.773438 -2.078125 35.671875 -1.546875 C 35.578125 -1.023438 35.472656 -0.507812 35.359375 0 C 34.765625 2.769531 34.453125 4.191406 34.421875 4.265625 C 34.378906 4.390625 29.382812 4.453125 19.4375 4.453125 L 4.5625 4.453125 L 4.5625 -16.796875 C 4.5625 -23.941406 4.550781 -29.238281 4.53125 -32.6875 C 4.507812 -36.144531 4.460938 -38.007812 4.390625 -38.28125 C 4.273438 -38.863281 3.925781 -39.253906 3.34375 -39.453125 Z M 18.03125 -22.359375 L 33.65625 -22.359375 L 33.65625 -13.40625 L 18.03125 -13.40625 Z M 18.03125 -22.359375 "/></g></g><g style="fill:#0039a6;fill-opacity:1;"><g transform="translate(155.957138, 47.42485)"><path style="stroke:none" d="M 16.390625 -21.015625 L 19.78125 -21.015625 C 20.757812 -21.015625 21.539062 -21.023438 22.125 -21.046875 C 22.707031 -21.066406 23.117188 -21.09375 23.359375 -21.125 C 23.785156 -21.164062 24.332031 -21.34375 25 -21.65625 C 25.8125 -22.082031 26.414062 -22.726562 26.8125 -23.59375 C 27.351562 -24.800781 27.445312 -26.085938 27.09375 -27.453125 C 26.75 -28.890625 25.953125 -29.84375 24.703125 -30.3125 L 24.109375 -30.671875 L 20.25 -30.734375 L 17.671875 -30.734375 L 17.671875 -39.5625 C 19.660156 -39.5625 21.269531 -39.5625 22.5 -39.5625 C 23.726562 -39.5625 24.691406 -39.5625 25.390625 -39.5625 C 26.097656 -39.5625 26.609375 -39.550781 26.921875 -39.53125 C 27.234375 -39.519531 27.445312 -39.515625 27.5625 -39.515625 C 30.882812 -39.234375 33.539062 -38.28125 35.53125 -36.65625 C 37.519531 -35.039062 38.828125 -32.578125 39.453125 -29.265625 C 39.960938 -26.066406 39.601562 -23.394531 38.375 -21.25 C 37.144531 -19.101562 35.179688 -17.816406 32.484375 -17.390625 L 31.671875 -17.328125 L 32.421875 -17.15625 C 35.003906 -16.757812 36.757812 -15.488281 37.6875 -13.34375 C 37.96875 -12.800781 38.191406 -12 38.359375 -10.9375 C 38.535156 -9.882812 38.703125 -8.539062 38.859375 -6.90625 C 39.328125 -0.820312 39.5625 2.820312 39.5625 4.03125 L 39.5625 4.453125 L 27.15625 4.453125 L 27.046875 3.921875 C 27.003906 3.691406 26.972656 3.289062 26.953125 2.71875 C 26.929688 2.15625 26.882812 1.441406 26.8125 0.578125 C 26.457031 -5.859375 25.988281 -9.703125 25.40625 -10.953125 C 25.207031 -11.335938 24.539062 -11.644531 23.40625 -11.875 C 22.976562 -11.957031 21.671875 -12.035156 19.484375 -12.109375 L 16.390625 -12.109375 L 16.390625 4.453125 L 4.5 4.453125 L 4.5 -16.859375 C 4.539062 -22.003906 4.550781 -26.097656 4.53125 -29.140625 C 4.507812 -32.191406 4.5 -34.242188 4.5 -35.296875 C 4.425781 -37.285156 4.347656 -38.359375 4.265625 -38.515625 C 4.078125 -38.984375 3.769531 -39.316406 3.34375 -39.515625 C 3.570312 -39.515625 3.84375 -39.515625 4.15625 -39.515625 C 4.46875 -39.515625 4.828125 -39.519531 5.234375 -39.53125 C 5.648438 -39.550781 6.128906 -39.5625 6.671875 -39.5625 L 16.390625 -39.5625 Z M 16.390625 -21.015625 "/></g></g></g></g><g transform="matrix(1,0,0,1,22,214)"><g clip-path="url(#f5e405215f)"><g style="fill:#d52b1e;fill-opacity:1;"><g transform="translate(0.429491, 55.59668)"><path style="stroke:none" d="M 19.3125 -45.875 L 18.90625 -46.140625 L 34.34375 -46.140625 L 17.609375 5.1875 L 3.75 5.1875 L 19.9375 -44.578125 L 19.859375 -45.0625 C 19.816406 -45.414062 19.632812 -45.6875 19.3125 -45.875 Z M 19.3125 -45.875 "/></g></g><g style="fill:#d52b1e;fill-opacity:1;"><g transform="translate(26.367764, 55.59668)"><path style="stroke:none" d="M 18.90625 -46.015625 C 18.90625 -46.015625 18.972656 -46.035156 19.109375 -46.078125 C 19.390625 -46.117188 20.097656 -46.140625 21.234375 -46.140625 L 33.796875 -46.140625 L 17.0625 5.1875 L 3.484375 5.1875 L 11.53125 -19.53125 C 14.21875 -27.8125 16.222656 -34.019531 17.546875 -38.15625 C 18.867188 -42.300781 19.550781 -44.460938 19.59375 -44.640625 C 19.59375 -44.691406 19.59375 -44.738281 19.59375 -44.78125 C 19.59375 -45.320312 19.363281 -45.734375 18.90625 -46.015625 Z M 35.5625 -46.140625 L 43.890625 -46.140625 C 44.804688 -46.140625 45.488281 -46.117188 45.9375 -46.078125 C 46.394531 -46.035156 46.835938 -45.976562 47.265625 -45.90625 C 47.703125 -45.84375 48.125 -45.71875 48.53125 -45.53125 C 49.625 -45.21875 50.625 -44.707031 51.53125 -44 C 52.445312 -43.289062 53.222656 -42.457031 53.859375 -41.5 C 54.492188 -40.550781 54.957031 -39.492188 55.25 -38.328125 C 55.550781 -37.171875 55.703125 -36 55.703125 -34.8125 C 55.660156 -30.625 54.066406 -26.617188 50.921875 -22.796875 C 49.109375 -20.617188 47.050781 -18.800781 44.75 -17.34375 C 42.445312 -15.882812 40.023438 -14.8125 37.484375 -14.125 C 35.703125 -13.71875 32.898438 -13.515625 29.078125 -13.515625 L 24.921875 -13.515625 L 28.0625 -23.140625 L 30.859375 -23.203125 C 32.585938 -23.203125 33.679688 -23.25 34.140625 -23.34375 C 37.597656 -24.394531 39.800781 -26.738281 40.75 -30.375 C 40.976562 -31.144531 41.09375 -31.828125 41.09375 -32.421875 C 41.09375 -33.835938 40.523438 -34.796875 39.390625 -35.296875 C 39.023438 -35.472656 37.707031 -35.5625 35.4375 -35.5625 L 32.078125 -35.5625 Z M 35.5625 -46.140625 "/></g></g><g style="fill:#d52b1e;fill-opacity:1;"><g transform="translate(74.899338, 55.59668)"><path style="stroke:none" d="M 16.390625 -46.140625 L 56.59375 -46.140625 L 53.171875 -35.703125 L 12.96875 -35.703125 Z M 24.921875 -33.3125 L 24.640625 -33.65625 L 39.390625 -33.65625 L 26.765625 5.1875 L 12.96875 5.1875 L 19.046875 -13.375 C 21.097656 -19.75 22.644531 -24.539062 23.6875 -27.75 C 24.738281 -30.957031 25.265625 -32.609375 25.265625 -32.703125 C 25.265625 -32.878906 25.148438 -33.082031 24.921875 -33.3125 Z M 24.921875 -33.3125 "/></g></g><g style="fill:#d52b1e;fill-opacity:1;"><g transform="translate(119.33545, 55.59668)"><path style="stroke:none" d="M 15.96875 -45.8125 L 15.5625 -46.140625 L 31.328125 -46.140625 L 31.265625 -45.734375 C 31.222656 -45.554688 31.203125 -45.382812 31.203125 -45.21875 C 31.203125 -45.0625 31.203125 -44.914062 31.203125 -44.78125 C 31.203125 -44.738281 31.203125 -44.625 31.203125 -44.4375 C 31.203125 -44.03125 31.15625 -43.175781 31.0625 -41.875 C 30.96875 -40.582031 30.875 -38.570312 30.78125 -35.84375 C 30.78125 -35.613281 30.769531 -35.289062 30.75 -34.875 C 30.726562 -34.46875 30.71875 -33.945312 30.71875 -33.3125 C 30.675781 -32.675781 30.640625 -32.128906 30.609375 -31.671875 C 30.585938 -31.222656 30.578125 -30.882812 30.578125 -30.65625 C 30.441406 -28.007812 30.335938 -25.832031 30.265625 -24.125 C 30.203125 -22.425781 30.148438 -21.144531 30.109375 -20.28125 C 30.109375 -20.050781 30.09375 -19.71875 30.0625 -19.28125 C 30.039062 -18.851562 30.007812 -18.320312 29.96875 -17.6875 C 29.96875 -17.039062 29.957031 -16.515625 29.9375 -16.109375 C 29.914062 -15.703125 29.878906 -15.382812 29.828125 -15.15625 C 29.828125 -14.101562 29.789062 -13.066406 29.71875 -12.046875 C 29.65625 -11.023438 29.601562 -9.988281 29.5625 -8.9375 C 29.5625 -8.488281 29.5625 -8.238281 29.5625 -8.1875 C 29.65625 -8.1875 29.90625 -8.550781 30.3125 -9.28125 C 31.539062 -11.332031 32.585938 -13.082031 33.453125 -14.53125 C 34.316406 -15.988281 35.019531 -17.222656 35.5625 -18.234375 C 35.832031 -18.734375 36.148438 -19.273438 36.515625 -19.859375 C 36.878906 -20.453125 37.289062 -21.09375 37.75 -21.78125 C 37.9375 -22.144531 38.234375 -22.664062 38.640625 -23.34375 C 39.046875 -24.03125 39.546875 -24.875 40.140625 -25.875 C 40.640625 -26.738281 41.035156 -27.410156 41.328125 -27.890625 C 41.628906 -28.367188 41.828125 -28.675781 41.921875 -28.8125 C 42.503906 -29.8125 43.023438 -30.675781 43.484375 -31.40625 C 43.941406 -32.132812 44.328125 -32.75 44.640625 -33.25 C 46.828125 -36.789062 48.546875 -39.609375 49.796875 -41.703125 C 51.046875 -43.796875 51.851562 -45.164062 52.21875 -45.8125 L 52.421875 -46.078125 L 59.1875 -46.140625 C 63.601562 -46.054688 65.8125 -46.015625 65.8125 -46.015625 C 64.8125 -44.460938 63.773438 -42.832031 62.703125 -41.125 C 61.628906 -39.414062 60.457031 -37.585938 59.1875 -35.640625 C 57.820312 -33.546875 56.457031 -31.4375 55.09375 -29.3125 C 53.726562 -27.195312 52.382812 -25.050781 51.0625 -22.875 C 48.144531 -18.457031 45.3125 -14.070312 42.5625 -9.71875 C 39.8125 -5.375 37.070312 -1 34.34375 3.40625 L 33.171875 5.1875 L 17.34375 5.1875 L 17.203125 3.953125 C 17.242188 3.640625 17.265625 3.050781 17.265625 2.1875 C 17.265625 1.769531 17.265625 1.269531 17.265625 0.6875 L 17.34375 0.484375 L 17.265625 0.40625 L 17.34375 0.265625 L 17.265625 0.140625 C 17.398438 -7.773438 17.515625 -15.015625 17.609375 -21.578125 C 17.609375 -25.441406 17.617188 -28.375 17.640625 -30.375 C 17.671875 -32.375 17.6875 -33.46875 17.6875 -33.65625 C 17.726562 -35.789062 17.769531 -37.769531 17.8125 -39.59375 C 17.769531 -40 17.722656 -40.507812 17.671875 -41.125 C 17.628906 -41.738281 17.539062 -42.351562 17.40625 -42.96875 C 17.269531 -43.582031 17.078125 -44.148438 16.828125 -44.671875 C 16.578125 -45.203125 16.289062 -45.582031 15.96875 -45.8125 Z M 15.96875 -45.8125 "/></g></g></g></g></g></svg>