<?xml version="1.0" encoding="UTF-8"?>
<svg version="1.1" xmlns="http://www.w3.org/2000/svg" width="500" height="500">
<path d="M0 0 C1.55184167 0.89755338 3.10390999 1.79471504 4.65625 2.69140625 C8.79120465 5.09396228 12.89902353 7.5400076 17 10 C18.4609149 10.87373571 19.92185262 11.74743326 21.3828125 12.62109375 C24.92576421 14.74095544 28.4630858 16.8700851 32 19 C28.17484958 32.52442626 23.82530093 45.86245506 19.41891479 59.2071228 C17.28816013 65.66190851 15.16676673 72.11976471 13.046875 78.578125 C12.83211454 79.23221533 12.61735409 79.88630566 12.39608574 80.5602169 C8.17691113 93.41489992 4.04289972 106.29606431 -0.0625 119.1875 C-5.94539516 137.64990524 -11.91416543 156.0830359 -17.9375 174.5 C-18.33711945 175.72359222 -18.73673889 176.94718445 -19.14846802 178.20785522 C-20.27294852 181.64958301 -21.39969357 185.09055961 -22.52734375 188.53125 C-22.86506805 189.5651033 -23.20279236 190.5989566 -23.55075073 191.66413879 C-23.86005524 192.60577377 -24.16935974 193.54740875 -24.48803711 194.51757812 C-24.75732529 195.33939575 -25.02661346 196.16121338 -25.30406189 197.00793457 C-26 199 -26 199 -27 201 C1.38 201 29.76 201 59 201 C55.62525062 211.12424814 55.62525062 211.12424814 54.16918945 214.62548828 C53.8400354 215.42141891 53.51088135 216.21734955 53.17175293 217.03739929 C52.82245728 217.87326065 52.47316162 218.70912201 52.11328125 219.5703125 C51.73941284 220.47227859 51.36554443 221.37424469 50.98034668 222.30354309 C50.17799685 224.23831306 49.37425727 226.1725072 48.56924438 228.10617065 C46.85340998 232.22778146 45.14442063 236.35221945 43.4349823 240.47648621 C42.55952638 242.58845695 41.68372103 244.70028289 40.80757141 246.81196594 C36.78436891 256.51032463 32.79292255 266.22151975 28.8125 275.9375 C28.15935788 277.53125632 27.50620032 279.12500632 26.85302734 280.71875 C25.8776991 283.09864341 24.90242136 285.47855742 23.92733765 287.85855103 C21.61382673 293.50476213 19.29604168 299.14920712 16.9765625 304.79296875 C7.91923807 326.83574711 -1.06706499 348.90652138 -10 371 C-6.47135844 367.52289546 -3.35945885 364.02015196 -0.375 360.0625 C0.50712879 358.90052231 1.38996534 357.73908163 2.2734375 356.578125 C2.94971191 355.68770508 2.94971191 355.68770508 3.63964844 354.77929688 C5.81459187 351.93453956 8.03181252 349.12358391 10.25 346.3125 C14.52149076 340.89158155 18.76633488 335.45050631 23 330 C28.53439981 322.87662651 34.09308215 315.77303237 39.67333984 308.68554688 C41.95086206 305.79191173 44.22524007 302.89580677 46.5 300 C47.4166523 298.83332204 48.33331895 297.66665536 49.25 296.5 C49.70375 295.9225 50.1575 295.345 50.625 294.75 C63.6875 278.125 63.6875 278.125 76.75 261.5 C77.2039917 260.92217773 77.6579834 260.34435547 78.12573242 259.74902344 C79.03990015 258.58556677 79.95412516 257.42215511 80.8684082 256.25878906 C83.198787 253.29338101 85.52808115 250.32713143 87.85546875 247.359375 C91.90250157 242.20071085 95.95241677 237.04621791 100.0625 231.9375 C103.4618278 227.70215865 106.77750221 223.40560552 110.08056641 219.09521484 C114.54118602 213.28032742 119.07290513 207.52228187 123.60888672 201.76611328 C125.90874242 198.84628946 128.20412359 195.92295297 130.5 193 C131.41275331 191.83853608 132.32551373 190.67707775 133.23828125 189.515625 C135.11188772 187.13115604 136.98411982 184.74561605 138.85546875 182.359375 C139.79940513 181.15619191 140.74341469 179.95306623 141.6875 178.75 C142.1424585 178.17016357 142.59741699 177.59032715 143.06616211 176.99291992 C146.49244955 172.63202119 149.95483296 168.30119415 153.44140625 163.98828125 C154.70149754 162.38079637 155.86702058 160.69946913 157 159 C120.7 158.67 84.4 158.34 47 158 C48.82308434 151.31535741 50.63225009 144.84383893 52.94140625 138.34765625 C53.22152054 137.54911224 53.50163483 136.75056824 53.79023743 135.92782593 C54.71096626 133.30485644 55.63677995 130.68371161 56.5625 128.0625 C57.90146499 124.25320929 59.23774011 120.44297613 60.57421875 116.6328125 C60.92514587 115.63352219 61.276073 114.63423187 61.63763428 113.60466003 C64.43319646 105.63738606 67.20017641 97.66043028 69.95703125 89.6796875 C70.36774368 88.490905 70.77845612 87.3021225 71.20161438 86.07731628 C72.83112736 81.35937726 74.45998172 76.64121289 76.08694458 71.9223938 C77.22086985 68.63406018 78.35640723 65.34628703 79.4921875 62.05859375 C79.83316971 61.06789886 80.17415192 60.07720398 80.52546692 59.05648804 C80.83787827 58.15282501 81.15028961 57.24916199 81.47216797 56.31811523 C81.88062454 55.13366066 81.88062454 55.13366066 82.29733276 53.92527771 C83 52 83 52 84 50 C88.10897287 51.2576107 91.65406986 52.77976192 95.359375 54.94921875 C96.37918457 55.54226807 97.39899414 56.13531738 98.44970703 56.74633789 C99.53880371 57.38692139 100.62790039 58.02750488 101.75 58.6875 C102.9057488 59.36182715 104.06184266 60.03556318 105.21826172 60.70874023 C107.61980548 62.10729796 110.01984804 63.50838294 112.41894531 64.91113281 C117.9723187 68.15475911 123.5506203 71.35516677 129.125 74.5625 C138.42167757 79.9215237 147.69689373 85.31634622 156.96142578 90.73071289 C164.2931253 95.01244947 171.64287304 99.26212437 179 103.5 C189.51403203 109.55748317 200.00959764 115.64553153 210.48046875 121.77734375 C213.95170306 123.80938834 217.43194722 125.82348971 220.92578125 127.81640625 C237.10062188 137.0861271 237.10062188 137.0861271 243 143 C243 143.66 243 144.32 243 145 C243.66 145 244.32 145 245 145 C255.4541694 157.56560263 260.94211338 173.0608152 260.3828125 189.4296875 C258.47860439 207.18934276 251.50766381 222.91045902 237.40380859 234.28759766 C227.96923545 241.36563157 217.36153718 246.85635574 207.0859375 252.5859375 C201.07616319 255.94224529 195.1262381 259.3948848 189.1875 262.875 C177.58082186 269.66926831 165.9360672 276.39590071 154.28222656 283.10888672 C148.85340058 286.23680148 143.42680719 289.36858448 138 292.5 C135.83334417 293.75001879 133.6666775 295.00001878 131.5 296.25 C130.4275 296.86875 129.355 297.4875 128.25 298.125 C118.5 303.75 118.5 303.75 115.24951172 305.62524414 C113.08442929 306.87435518 110.91939018 308.12354129 108.75439453 309.37280273 C103.31384294 312.51202309 97.87252784 315.64990563 92.4296875 318.78515625 C81.93767906 324.83055159 71.45518324 330.89110219 61 337 C49.46744395 343.73839997 37.90030988 350.41585735 26.32617188 357.08251953 C21.79310893 359.6957518 17.26377074 362.31541066 12.73413086 364.93457031 C8.43984104 367.4152023 4.14131478 369.88843359 -0.15771484 372.36083984 C-2.71015863 373.83284703 -5.25628836 375.31509248 -7.80078125 376.80078125 C-24.45194975 386.45324657 -41.19241876 391.21407667 -60.4375 386.875 C-75.35910103 382.40060081 -89.57798927 373.07886172 -97.13671875 359.18359375 C-103.92221704 346.13804296 -106.14960781 334.65186308 -106.14717102 319.98425293 C-106.15084771 318.78814219 -106.1545244 317.59203145 -106.1583125 316.35967493 C-106.16739194 313.05656297 -106.17203853 309.75350048 -106.17470181 306.4503808 C-106.17862454 302.88098547 -106.18820129 299.31160426 -106.19691467 295.74221802 C-106.21662204 287.13138917 -106.22673726 278.52055925 -106.23564246 269.90971351 C-106.2400341 265.84730437 -106.24539857 261.78489652 -106.25063133 257.7224884 C-106.26763664 244.20613628 -106.28212932 230.68978494 -106.28938007 217.17342377 C-106.29128972 213.67062885 -106.2932101 210.16783395 -106.29516602 206.66503906 C-106.29564976 205.7945193 -106.2961335 204.92399953 -106.2966319 204.02710038 C-106.30492687 189.93488312 -106.3302579 175.84275088 -106.36274669 161.75057071 C-106.39588212 147.25895947 -106.41383461 132.76739136 -106.41702431 118.27574205 C-106.41918324 110.14869436 -106.42784117 102.02177073 -106.45348549 93.89476013 C-106.47528116 86.9717981 -106.48319955 80.0489903 -106.47351871 73.12599784 C-106.46899971 69.59987546 -106.47071831 66.07407071 -106.49028015 62.54799271 C-106.5947558 40.03437412 -105.64607739 19.30476816 -89.22265625 2.05859375 C-61.10050836 -23.98775412 -30.1182972 -17.64883207 0 0 Z " fill="#D42B1E" transform="translate(167,63)"/>
<path d="M0 0 C4.10897287 1.2576107 7.65406986 2.77976192 11.359375 4.94921875 C12.37918457 5.54226807 13.39899414 6.13531738 14.44970703 6.74633789 C15.53880371 7.38692139 16.62790039 8.02750488 17.75 8.6875 C18.9057488 9.36182715 20.06184266 10.03556318 21.21826172 10.70874023 C23.61980548 12.10729796 26.01984804 13.50838294 28.41894531 14.91113281 C33.9723187 18.15475911 39.5506203 21.35516677 45.125 24.5625 C54.42167757 29.9215237 63.69689373 35.31634622 72.96142578 40.73071289 C80.2931253 45.01244947 87.64287304 49.26212437 95 53.5 C105.51403203 59.55748317 116.00959764 65.64553153 126.48046875 71.77734375 C129.95170306 73.80938834 133.43194722 75.82348971 136.92578125 77.81640625 C153.10062188 87.0861271 153.10062188 87.0861271 159 93 C159 93.66 159 94.32 159 95 C159.66 95 160.32 95 161 95 C171.4541694 107.56560263 176.94211338 123.0608152 176.3828125 139.4296875 C174.47860439 157.18934276 167.50766381 172.91045902 153.40380859 184.28759766 C143.96923545 191.36563157 133.36153718 196.85635574 123.0859375 202.5859375 C117.07616319 205.94224529 111.1262381 209.3948848 105.1875 212.875 C93.58082186 219.66926831 81.9360672 226.39590071 70.28222656 233.10888672 C64.85340058 236.23680148 59.42680719 239.36858448 54 242.5 C51.83334417 243.75001879 49.6666775 245.00001878 47.5 246.25 C46.4275 246.86875 45.355 247.4875 44.25 248.125 C34.5 253.75 34.5 253.75 31.24951172 255.62524414 C29.08442929 256.87435518 26.91939018 258.12354129 24.75439453 259.37280273 C19.31384294 262.51202309 13.87252784 265.64990563 8.4296875 268.78515625 C-2.06232094 274.83055159 -12.54481676 280.89110219 -23 287 C-36.8053083 295.06635482 -50.65946848 303.04751199 -64.51660156 311.02441406 C-66.87346291 312.38115258 -69.23006924 313.73833221 -71.58642578 315.09594727 C-73.79006869 316.36546119 -75.99413955 317.63423268 -78.19873047 318.90209961 C-79.20564941 319.4822583 -80.21256836 320.06241699 -81.25 320.66015625 C-82.21164063 321.2133252 -83.17328125 321.76649414 -84.1640625 322.33642578 C-87.83694458 324.49095561 -91.4445139 326.74647075 -95.0390625 329.02905273 C-95.68617188 329.34946533 -96.33328125 329.66987793 -97 330 C-97.66 329.67 -98.32 329.34 -99 329 C-94.44271192 322.50138981 -89.6531033 316.26245981 -84.625 310.125 C-79.42169203 303.7735093 -74.36819984 297.33673821 -69.38671875 290.80908203 C-61.12494938 280.03096389 -52.72748645 269.35543666 -44.32666016 258.68554688 C-42.04913794 255.79191173 -39.77475993 252.89580677 -37.5 250 C-36.5833477 248.83332204 -35.66668105 247.66665536 -34.75 246.5 C-34.29625 245.9225 -33.8425 245.345 -33.375 244.75 C-24.66666667 233.66666667 -15.95833333 222.58333333 -7.25 211.5 C-6.7960083 210.92217773 -6.3420166 210.34435547 -5.87426758 209.74902344 C-4.96009985 208.58556677 -4.04587484 207.42215511 -3.1315918 206.25878906 C-0.801213 203.29338101 1.52808115 200.32713143 3.85546875 197.359375 C7.90250157 192.20071085 11.95241677 187.04621791 16.0625 181.9375 C19.4618278 177.70215865 22.77750221 173.40560552 26.08056641 169.09521484 C30.54118602 163.28032742 35.07290513 157.52228187 39.60888672 151.76611328 C41.90874242 148.84628946 44.20412359 145.92295297 46.5 143 C47.41275331 141.83853608 48.32551373 140.67707775 49.23828125 139.515625 C51.11188772 137.13115604 52.98411982 134.74561605 54.85546875 132.359375 C55.79940513 131.15619191 56.74341469 129.95306623 57.6875 128.75 C58.1424585 128.17016357 58.59741699 127.59032715 59.06616211 126.99291992 C62.49244955 122.63202119 65.95483296 118.30119415 69.44140625 113.98828125 C70.70149754 112.38079637 71.86702058 110.69946913 73 109 C36.7 108.67 0.4 108.34 -37 108 C-35.17691566 101.31535741 -33.36774991 94.84383893 -31.05859375 88.34765625 C-30.77847946 87.54911224 -30.49836517 86.75056824 -30.20976257 85.92782593 C-29.28903374 83.30485644 -28.36322005 80.68371161 -27.4375 78.0625 C-26.09853501 74.25320929 -24.76225989 70.44297613 -23.42578125 66.6328125 C-23.07485413 65.63352219 -22.723927 64.63423187 -22.36236572 63.60466003 C-19.56680354 55.63738606 -16.79982359 47.66043028 -14.04296875 39.6796875 C-13.63225632 38.490905 -13.22154388 37.3021225 -12.79838562 36.07731628 C-11.16887264 31.35937726 -9.54001828 26.64121289 -7.91305542 21.9223938 C-6.77913015 18.63406018 -5.64359277 15.34628703 -4.5078125 12.05859375 C-4.16683029 11.06789886 -3.82584808 10.07720398 -3.47453308 9.05648804 C-3.16212173 8.15282501 -2.84971039 7.24916199 -2.52783203 6.31811523 C-2.11937546 5.13366066 -2.11937546 5.13366066 -1.70266724 3.92527771 C-1 2 -1 2 0 0 Z " fill="#21458A" transform="translate(251,113)"/>
</svg>
